:SAMPLES-PER-SECOND 24
:FULLY-SPECIFIED
:DEGREES
63
root  11.3865 39.9724 35.9729 -175.54 -6.58099 -176.839
RightUpLeg  -29.4 18.5918 -9.23193
RightLeg  20.4551 6.8593 2.61531
RightFoot  -0.238941 -1.90333 19.3943
RightToes  -2.08645e-008 3.77894e-005 6.81332e-007
Spine  2.31029 -3.73722 -2.57623
Spine1  10.659 -7.79595 14.6191
HEad  -25.3003 -16.872 -3.68838
LeftShoulder1  7.22078 -12.9878 -37.6906
LeftArm  -0.975751 28.894 -27.8573
LeftForeArm  75.0181 -79.3411 -63.6899
LeftHand  -0.681956 -2.51282 10.2279
RightShoulder  3.85398 6.37939 33.1126
RightArm  -2.31432 -27.1374 27.5749
RightForeArm  65.3121 77.5376 47.8092
RightHand  -0.754927 5.88749 -8.07645
LeftUpLeg  -2.8895 -36.7803 -1.0115
LeftLeg  26.7025 -19.8991 -10.242
LeftFoot  -4.89725 -0.635278 11.7649
LeftToes  1.24767e-006 1.47042e-008 1.32732e-009
64
root  11.7449 39.7748 35.2274 -175.621 -12.502 -177.417
RightUpLeg  -26.5243 21.9269 -11.7733
RightLeg  16.7083 10.379 2.64996
RightFoot  1.54358 -1.9857 17.5622
RightToes  -2.08645e-008 3.77894e-005 6.81332e-007
Spine  0.742454 -3.77165 -1.1738
Spine1  11.7267 -7.58941 13.2521
HEad  -23.6806 -9.32991 -7.3926
LeftShoulder1  7.15849 -12.908 -37.5299
LeftArm  0.059303 25.5818 -28.1785
LeftForeArm  75.9404 -79.4067 -64.161
LeftHand  -0.695521 -2.63312 10.2785
RightShoulder  3.81543 6.34868 32.8428
RightArm  -2.97278 -28.3508 26.7555
RightForeArm  60.4359 76.4732 42.8865
RightHand  -0.761812 6.44728 -7.7923
LeftUpLeg  -3.76177 -36.4232 -0.0334171
LeftLeg  29.5503 -22.0022 -12.644
LeftFoot  -5.79949 -0.544662 11.9256
LeftToes  1.24767e-006 1.47042e-008 1.32732e-009
65
root  12.1355 39.4217 34.3972 -175.207 -17.1852 -177.602
RightUpLeg  -23.7005 20.3354 -11.1795
RightLeg  15.6612 15.1323 2.52401
RightFoot  -0.298669 -1.42051 14.4833
RightToes  -2.08645e-008 3.77894e-005 6.81332e-007
Spine  -0.45948 -3.57365 0.438284
Spine1  11.6806 -7.1113 12.1915
HEad  -22.6658 -0.0601385 -11.2177
LeftShoulder1  6.98712 -12.7351 -36.9588
LeftArm  -0.305223 24.4258 -29.0227
LeftForeArm  83.4468 -79.946 -72.1079
LeftHand  -0.674634 -2.64443 9.96326
RightShoulder  3.72133 6.25716 32.2404
RightArm  -3.13428 -29.5204 26.1721
RightForeArm  57.2138 75.634 39.7411
RightHand  -0.69003 6.70335 -6.95043
LeftUpLeg  -5.21692 -34.2374 1.74658
LeftLeg  32.4739 -22.3259 -14.3077
LeftFoot  -8.36784 -0.236023 11.0005
LeftToes  1.24767e-006 1.47042e-008 1.32732e-009
66
root  12.5876 39.008 33.5574 -175.052 -21.0244 -177.217
RightUpLeg  -20.7782 16.543 -8.68755
RightLeg  15.2043 15.1896 1.76065
RightFoot  -6.54886 -0.602159 13.267
RightToes  -2.08645e-008 3.77894e-005 6.81332e-007
Spine  -0.716807 -3.28629 2.60768
Spine1  11.1623 -6.50209 11.06
HEad  -23.3141 10.323 -15.0786
LeftShoulder1  6.93324 -12.6654 -36.8172
LeftArm  -1.0855 24.0073 -28.6236
LeftForeArm  97.4308 -80.3629 -87.1478
LeftHand  -0.643894 -2.43885 9.75685
RightShoulder  3.6805 6.21815 31.973
RightArm  -3.16735 -29.9948 25.5222
RightForeArm  54.0837 74.9101 37.5719
RightHand  -0.711139 6.47462 -7.28029
LeftUpLeg  -6.11602 -30.0532 4.02138
LeftLeg  34.3757 -20.5401 -14.1762
LeftFoot  -12.0725 0.131453 9.20799
LeftToes  1.24767e-006 1.47042e-008 1.32732e-009
67
root  13.0007 38.7737 32.8558 -175.366 -23.8922 -176.003
RightUpLeg  -19.4184 14.6975 -6.1587
RightLeg  15.4924 12.8225 1.61876
RightFoot  -10.6938 -0.15183 13.8892
RightToes  -2.08645e-008 3.77894e-005 6.81332e-007
Spine  -0.536599 -3.03477 6.85187
Spine1  11.5798 -5.51436 7.87018
HEad  -26.1763 20.5929 -19.489
LeftShoulder1  7.17755 -12.8798 -37.7152
LeftArm  -2.81812 22.204 -27.3452
LeftForeArm  104.592 -80.3896 -93.7655
LeftHand  -0.642957 -2.32658 9.87685
RightShoulder  3.7433 6.30734 32.2698
RightArm  -3.69792 -28.1905 25.4125
RightForeArm  47.3585 72.3419 31.1945
RightHand  -0.746579 6.94398 -7.35755
LeftUpLeg  -6.98792 -24.0307 6.35747
LeftLeg  35.9347 -16.1583 -11.8996
LeftFoot  -14.7374 0.259679 5.76645
LeftToes  1.24767e-006 1.47042e-008 1.32732e-009
68
root  13.3606 38.7993 32.334 -175.318 -26.8061 -175.238
RightUpLeg  -19.6346 14.9725 -5.40306
RightLeg  16.6748 9.76411 2.22401
RightFoot  -11.143 -0.0998059 13.734
RightToes  -2.08645e-008 3.77894e-005 6.81332e-007
Spine  0.0837415 -2.96743 9.70769
Spine1  11.9565 -4.82575 5.28018
HEad  -30.0194 29.8811 -24.0531
LeftShoulder1  7.45128 -13.1415 -38.6337
LeftArm  -5.6346 19.6277 -27.9579
LeftForeArm  94.7379 -80.3801 -82.6068
LeftHand  -0.686244 -2.4335 10.3887
RightShoulder  3.77743 6.38234 32.3252
RightArm  -4.55128 -24.7877 25.9259
RightForeArm  40.3138 67.2429 22.9989
RightHand  -0.743945 7.44204 -7.0704
LeftUpLeg  -9.1307 -16.6588 7.62293
LeftLeg  38.0732 -10.7629 -8.56225
LeftFoot  -14.3513 0.102454 0.352295
LeftToes  1.24767e-006 1.47042e-008 1.32732e-009
69
root  13.7404 39.0109 31.9209 -174.143 -31.1691 -176.427
RightUpLeg  -19.2843 13.0354 -5.82035
RightLeg  16.7317 7.44279 1.76663
RightFoot  -10.9137 -0.121839 12.5578
RightToes  -2.08645e-008 3.77894e-005 6.81332e-007
Spine  1.76114 -3.02121 7.86367
Spine1  10.4888 -4.95087 6.20059
HEad  -33.4099 37.4317 -27.4419
LeftShoulder1  7.41686 -13.1213 -38.4865
LeftArm  -7.03496 17.9849 -30.3512
LeftForeArm  82.8003 -79.9188 -71.2025
LeftHand  -0.735284 -2.34537 11.2358
RightShoulder  3.75331 6.37949 32.0908
RightArm  -5.18276 -23.2627 25.6914
RightForeArm  36.6912 63.3724 18.9635
RightHand  -0.812292 7.20057 -7.82402
LeftUpLeg  -12.272 -8.75348 6.74715
LeftLeg  39.6966 -5.93695 -4.88366
LeftFoot  -11.5938 0.0634934 -5.17808
LeftToes  1.24767e-006 1.47042e-008 1.32732e-009
70
root  14.0869 39.3379 31.5889 -172.022 -36.4388 -178.677
RightUpLeg  -18.0397 8.64634 -6.12972
RightLeg  14.8382 6.26471 0.325871
RightFoot  -10.137 -0.187466 11.2671
RightToes  -2.08645e-008 3.77894e-005 6.81332e-007
Spine  3.70226 -2.99869 5.76437
Spine1  8.17481 -4.85662 6.84371
HEad  -36.935 42.3742 -30.3712
LeftShoulder1  7.17838 -12.9075 -37.6484
LeftArm  -5.71532 17.3494 -31.255
LeftForeArm  87.5928 -80.1502 -76.5095
LeftHand  -0.717857 -2.33064 10.9928
RightShoulder  3.74156 6.37526 31.9878
RightArm  -5.60185 -25.246 24.439
RightForeArm  35.9762 64.0096 19.738
RightHand  -0.902294 6.99194 -8.78144
LeftUpLeg  -15.2995 -0.574674 4.35546
LeftLeg  39.789 -1.4395 -0.903382
LeftFoot  -9.55428 0.176072 -7.68412
LeftToes  1.24767e-006 1.47042e-008 1.32732e-009
71
root  14.3039 39.6388 31.3453 -169.732 -41.6177 179.583
RightUpLeg  -17.122 3.44253 -6.13714
RightLeg  12.6812 5.99237 -0.466493
RightFoot  -8.84121 -0.291271 10.558
RightToes  -2.08645e-008 3.77894e-005 6.81332e-007
Spine  4.66908 -2.92911 6.8173
Spine1  6.77975 -4.11639 4.6344
HEad  -40.6925 45.1841 -33.9674
LeftShoulder1  6.94385 -12.6967 -36.7992
LeftArm  -3.49209 16.9034 -29.9787
LeftForeArm  103.653 -80.499 -90.8518
LeftHand  -0.626025 -2.67889 9.22666
RightShoulder  3.68067 6.35443 31.4455
RightArm  -5.65592 -28.3851 23.1553
RightForeArm  37.0837 66.4788 22.4392
RightHand  -0.872677 6.91725 -8.55406
LeftUpLeg  -18.1844 7.42954 1.69711
LeftLeg  39.4504 1.58894 1.78728
LeftFoot  -9.4377 0.176083 -7.19544
LeftToes  1.24767e-006 1.47042e-008 1.32732e-009
72
root  14.4335 39.823 31.1566 -167.738 -46.8943 178.378
RightUpLeg  -16.4438 -1.23026 -6.26726
RightLeg  11.1679 5.07935 -0.351223
RightFoot  -8.2648 -0.341136 10.5723
RightToes  -2.08645e-008 3.77894e-005 6.81332e-007
Spine  5.12675 -2.71482 8.65378
Spine1  6.02396 -3.29379 2.44507
HEad  -43.2765 47.2074 -36.8827
LeftShoulder1  6.73519 -12.5129 -36.0103
LeftArm  -1.82132 16.4644 -28.5298
LeftForeArm  108.767 -80.5166 -94.911
LeftHand  -0.572149 -2.91367 8.22976
RightShoulder  3.5905 6.3419 30.5662
RightArm  -4.25104 -30.0904 20.8984
RightForeArm  37.0936 67.0221 23.1603
RightHand  -0.774116 6.70817 -7.75296
LeftUpLeg  -21.0868 14.0862 -0.715188
LeftLeg  39.3721 1.86333 2.02545
LeftFoot  -9.28921 0.18792 -7.34402
LeftToes  1.24767e-006 1.47042e-008 1.32732e-009
